<svg height="512" viewBox="0 0 512 512" width="512" xmlns="http://www.w3.org/2000/svg" xmlns:xlink="http://www.w3.org/1999/xlink"><linearGradient id="a" gradientUnits="userSpaceOnUse" x1="37.612" x2="549.684" y1="518.12" y2="6.047" data-name="New Gradient Swatch 1"><stop offset="0" stop-color="#003f8a"/><stop offset=".518" stop-color="#00d7df"/><stop offset="1" stop-color="#006df0"/></linearGradient><linearGradient id="b" x1="161.746" x2="673.818" xlink:href="#a" y1="642.254" y2="130.182"/><linearGradient id="c" x1="-70.602" x2="441.47" xlink:href="#a" y1="409.906" y2="-102.167"/><g><path d="m480 312h-8v-104a8 8 0 0 0 -8-8h-24v-72a8 8 0 0 0 -8-8h-105.46a88 88 0 1 0 -173.08 0h-97.46a48.051 48.051 0 0 0 -48 48v272a48.051 48.051 0 0 0 48 48h408a8 8 0 0 0 8-8v-104h8a24.032 24.032 0 0 0 24-24v-16a24.032 24.032 0 0 0 -24-24zm-240-280a72 72 0 1 1 -72 72 72.083 72.083 0 0 1 72-72zm-184 104h102.02a88.006 88.006 0 0 0 163.96 0h102.02v64h-368a32 32 0 0 1 0-64zm400 336h-400a32.03 32.03 0 0 1 -32-32v-236.26a47.8 47.8 0 0 0 32 12.26h400v96h-24a8 8 0 0 0 -8 8v48a8 8 0 0 0 8 8h24zm32-120a8.011 8.011 0 0 1 -8 8h-40v-32h40a8.011 8.011 0 0 1 8 8z" fill="url(#a)"/><path d="m320 400a8 8 0 0 0 -8 8v40a8 8 0 0 0 8 8h112a8 8 0 0 0 8-8v-40a8 8 0 0 0 -8-8zm104 40h-96v-24h96z" fill="url(#b)"/><path d="m280 88a24.032 24.032 0 0 0 -24-24h-.07a7.992 7.992 0 0 0 -15.86 0h-8.07a8 8 0 0 0 -16 0h-8a8 8 0 0 0 0 16v48a8 8 0 0 0 0 16h8a8 8 0 0 0 16 0h8a8 8 0 0 0 16 0 23.985 23.985 0 0 0 17.87-40 23.9 23.9 0 0 0 6.13-16zm-24 40h-32v-16h32a8 8 0 0 1 0 16zm0-32h-32v-16h32a8 8 0 0 1 0 16z" fill="url(#c)"/></g></svg>