<?xml version="1.0" encoding="iso-8859-1"?>
<!-- Generator: Adobe Illustrator 19.0.0, SVG Export Plug-In . SVG Version: 6.00 Build 0)  -->
<svg version="1.1" id="Capa_1" xmlns="http://www.w3.org/2000/svg" xmlns:xlink="http://www.w3.org/1999/xlink" x="0px" y="0px"
	 viewBox="0 0 512 512" style="enable-background:new 0 0 512 512;" xml:space="preserve">
<circle style="fill:#2196F3;" cx="256" cy="256" r="256"/>
<path style="fill:#FAFAFA;" d="M331.712,249.856C344.224,236.928,352,219.392,352,200c0-36.96-28.096-67.168-64-71.2V112
	c0-8.832-7.168-16-16-16s-16,7.168-16,16v16h-32v-16c0-8.832-7.168-16-16-16s-16,7.168-16,16v16h-16c-8.832,0-16,7.168-16,16v224
	c0,8.832,7.168,16,16,16h16v16c0,8.832,7.168,16,16,16s16-7.168,16-16v-16h32v16c0,8.832,7.168,16,16,16s16-7.168,16-16v-16h8
	c39.68,0,72-32.288,72-72C368,285.344,353.28,262.336,331.712,249.856z M192,160h88c22.048,0,40,17.952,40,40s-17.952,40-40,40h-88
	V160z M296,352H192v-80h88h16c22.048,0,40,17.952,40,40S318.048,352,296,352z"/>
<g>
</g>
<g>
</g>
<g>
</g>
<g>
</g>
<g>
</g>
<g>
</g>
<g>
</g>
<g>
</g>
<g>
</g>
<g>
</g>
<g>
</g>
<g>
</g>
<g>
</g>
<g>
</g>
<g>
</g>
</svg>
